<svg width="37" height="36" viewBox="0 0 37 36" fill="none" xmlns="http://www.w3.org/2000/svg">
<circle cx="18.6509" cy="17.9302" r="17.3302" stroke="#DF3333" stroke-width="1.2"/>
<g clip-path="url(#clip0_42_711)">
<path d="M16.0894 23.4194C12.4302 24.5171 12.4302 21.5897 10.9665 21.2238M21.2123 25.6149V22.7826C21.2398 22.4337 21.1926 22.0829 21.074 21.7535C20.9554 21.4242 20.768 21.1239 20.5244 20.8725C22.8224 20.6164 25.2374 19.7455 25.2374 15.7496C25.2373 14.7279 24.8442 13.7453 24.1397 13.0052C24.4733 12.1113 24.4497 11.1232 24.0738 10.2462C24.0738 10.2462 23.2102 9.99003 21.2123 11.3293C19.5349 10.8747 17.7668 10.8747 16.0894 11.3293C14.0915 9.99003 13.2279 10.2462 13.2279 10.2462C12.852 11.1232 12.8284 12.1113 13.162 13.0052C12.4522 13.7507 12.0588 14.7422 12.0643 15.7716C12.0643 19.7382 14.4793 20.6091 16.7773 20.8945C16.5366 21.1433 16.3509 21.44 16.2323 21.7653C16.1138 22.0906 16.0651 22.4373 16.0894 22.7826V25.6149" stroke="#DF3333" stroke-width="1.2" stroke-linecap="round" stroke-linejoin="round"/>
</g>
<defs>
<clipPath id="clip0_42_711">
<rect width="17.5642" height="17.5642" fill="white" transform="translate(9.50281 9.51416)"/>
</clipPath>
</defs>
</svg>
