<svg width="37" height="36" viewBox="0 0 37 36" fill="none" xmlns="http://www.w3.org/2000/svg">
<circle cx="18.5112" cy="17.9302" r="17.3302" stroke="#DF3333" stroke-width="1.2"/>
<path d="M20.8134 12.9598C21.5205 12.9619 22.1979 13.2437 22.6979 13.7436C23.1979 14.2436 23.4797 14.9211 23.4818 15.6281V20.9643C23.4797 21.6713 23.1979 22.3488 22.6979 22.8488C22.1979 23.3487 21.5205 23.6306 20.8134 23.6327H15.4772C14.7702 23.6306 14.0927 23.3487 13.5928 22.8488C13.0928 22.3488 12.811 21.6713 12.8089 20.9643V15.6281C12.811 14.9211 13.0928 14.2436 13.5928 13.7436C14.0927 13.2437 14.7702 12.9619 15.4772 12.9598H20.8134ZM20.8134 11.8926H15.4772C13.4227 11.8926 11.7417 13.5735 11.7417 15.6281V20.9643C11.7417 23.0189 13.4227 24.6998 15.4772 24.6998H20.8134C22.868 24.6998 24.549 23.0189 24.549 20.9643V15.6281C24.549 13.5735 22.868 11.8926 20.8134 11.8926Z" fill="#DF3333"/>
<path d="M21.6139 15.6278C21.4556 15.6278 21.3008 15.5808 21.1692 15.4929C21.0375 15.4049 20.9349 15.2799 20.8743 15.1336C20.8138 14.9874 20.7979 14.8264 20.8288 14.6711C20.8597 14.5159 20.9359 14.3732 21.0479 14.2613C21.1598 14.1494 21.3024 14.0731 21.4577 14.0422C21.613 14.0114 21.7739 14.0272 21.9202 14.0878C22.0665 14.1484 22.1915 14.251 22.2794 14.3826C22.3674 14.5142 22.4143 14.669 22.4143 14.8273C22.4145 14.9325 22.394 15.0367 22.3538 15.1339C22.3137 15.2311 22.2548 15.3194 22.1804 15.3938C22.106 15.4682 22.0177 15.5271 21.9205 15.5673C21.8232 15.6074 21.719 15.628 21.6139 15.6278ZM18.1453 16.1612C18.5675 16.1612 18.9802 16.2864 19.3313 16.521C19.6823 16.7555 19.9559 17.0889 20.1175 17.479C20.279 17.869 20.3213 18.2982 20.239 18.7123C20.1566 19.1264 19.9533 19.5067 19.6547 19.8053C19.3562 20.1038 18.9759 20.3071 18.5618 20.3895C18.1477 20.4718 17.7185 20.4296 17.3284 20.268C16.9384 20.1064 16.605 19.8328 16.3704 19.4818C16.1359 19.1307 16.0107 18.718 16.0107 18.2958C16.0113 17.7299 16.2364 17.1873 16.6366 16.7871C17.0368 16.3869 17.5794 16.1618 18.1453 16.1612ZM18.1453 15.094C17.5121 15.094 16.893 15.2818 16.3665 15.6336C15.84 15.9855 15.4296 16.4855 15.1872 17.0706C14.9449 17.6556 14.8815 18.2994 15.005 18.9205C15.1286 19.5416 15.4335 20.1121 15.8813 20.5599C16.3291 21.0077 16.8996 21.3126 17.5207 21.4361C18.1418 21.5597 18.7856 21.4963 19.3706 21.2539C19.9557 21.0116 20.4557 20.6012 20.8075 20.0747C21.1594 19.5481 21.3471 18.9291 21.3471 18.2958C21.3471 17.4467 21.0098 16.6323 20.4094 16.0318C19.8089 15.4314 18.9945 15.094 18.1453 15.094Z" fill="#DF3333"/>
</svg>
