<svg width="37" height="36" viewBox="0 0 37 36" fill="none" xmlns="http://www.w3.org/2000/svg">
<circle cx="18.7905" cy="17.9302" r="17.3302" stroke="#DF3333" stroke-width="1.2"/>
<path d="M23.804 11.8926H13.1153C12.5313 11.8926 12.021 12.3128 12.021 12.89V23.6024C12.021 24.1827 12.5313 24.6998 13.1153 24.6998H23.8008C24.388 24.6998 24.8283 24.1793 24.8283 23.6024V12.89C24.8317 12.3128 24.388 11.8926 23.804 11.8926ZM15.991 22.5681H14.1562V16.8634H15.991V22.5681ZM15.137 15.996H15.1239C14.5367 15.996 14.1565 15.5589 14.1565 15.0118C14.1565 14.4546 14.5467 14.0278 15.1471 14.0278C15.7474 14.0278 16.1147 14.4515 16.1279 15.0118C16.1276 15.5589 15.7474 15.996 15.137 15.996ZM22.6965 22.5681H20.8617V19.4489C20.8617 18.7016 20.5947 18.191 19.9309 18.191C19.4238 18.191 19.1236 18.5341 18.9901 18.8682C18.9401 18.9883 18.9266 19.1518 18.9266 19.3188V22.5681H17.0919V16.8634H18.9266V17.6573C19.1936 17.2771 19.6107 16.7299 20.5813 16.7299C21.7857 16.7299 22.6968 17.5238 22.6968 19.2353L22.6965 22.5681Z" fill="#DF3333"/>
</svg>
