<svg width="36" height="36" viewBox="0 0 36 36" fill="none" xmlns="http://www.w3.org/2000/svg">
<circle cx="17.9302" cy="17.9302" r="17.3302" stroke="#DF3333" stroke-width="1.2"/>
<g clip-path="url(#clip0_42_709)">
<path d="M19.0333 13.3332C19.6845 13.4602 20.2829 13.7787 20.7521 14.2478C21.2212 14.7169 21.5396 15.3153 21.6667 15.9665M19.0333 10.6665C20.3862 10.8168 21.6477 11.4226 22.6108 12.3845C23.5739 13.3464 24.1813 14.6072 24.3333 15.9598M23.6667 21.2798V23.2798C23.6674 23.4655 23.6294 23.6493 23.555 23.8194C23.4806 23.9895 23.3715 24.1422 23.2347 24.2677C23.0979 24.3933 22.9364 24.4888 22.7605 24.5483C22.5846 24.6078 22.3983 24.6299 22.2133 24.6132C20.1619 24.3903 18.1913 23.6893 16.46 22.5665C14.8492 21.5429 13.4836 20.1773 12.46 18.5665C11.3333 16.8273 10.6322 14.8472 10.4133 12.7865C10.3967 12.6021 10.4186 12.4163 10.4777 12.2409C10.5368 12.0655 10.6317 11.9043 10.7565 11.7676C10.8813 11.6309 11.0332 11.5216 11.2025 11.4469C11.3719 11.3721 11.5549 11.3333 11.74 11.3332H13.74C14.0635 11.33 14.3772 11.4446 14.6225 11.6555C14.8678 11.8665 15.0281 12.1595 15.0733 12.4798C15.1578 13.1199 15.3143 13.7483 15.54 14.3532C15.6297 14.5918 15.6491 14.8511 15.5959 15.1004C15.5428 15.3497 15.4192 15.5786 15.24 15.7598L14.3933 16.6065C15.3424 18.2755 16.7243 19.6575 18.3933 20.6065L19.24 19.7598C19.4213 19.5806 19.6501 19.4571 19.8994 19.4039C20.1487 19.3507 20.4081 19.3701 20.6467 19.4598C21.2515 19.6855 21.88 19.8421 22.52 19.9265C22.8439 19.9722 23.1396 20.1353 23.351 20.3848C23.5624 20.6344 23.6748 20.9529 23.6667 21.2798Z" stroke="#DF3333" stroke-linecap="round" stroke-linejoin="round"/>
</g>
<defs>
<clipPath id="clip0_42_709">
<rect width="16" height="16" fill="white" transform="translate(9 10)"/>
</clipPath>
</defs>
</svg>
